<?xml version="1.0" encoding="UTF-8"?>
<svg version="1.1" xmlns="http://www.w3.org/2000/svg" width="1024" height="720">
<path d="M0 0 C1.83666992 1.70336914 1.83666992 1.70336914 2.30664062 3.81298828 C2.29205811 4.61341553 2.27747559 5.41384277 2.26245117 6.23852539 C2.25407227 7.13120117 2.24569336 8.02387695 2.23706055 8.94360352 C2.20805664 9.87495117 2.17905273 10.80629883 2.14916992 11.76586914 C2.13950195 12.67014648 2.12983398 13.57442383 2.11987305 14.50610352 C2.01949381 20.61177954 1.53551223 26.63879756 0.83666992 32.70336914 C-1.9364106 34.08246822 -3.54404679 34.81881215 -6.63598633 34.24243164 C-7.49063477 33.94079102 -8.3452832 33.63915039 -9.22583008 33.32836914 C-15.66360793 31.39703579 -22.74899807 29.96617004 -29.21801758 32.51196289 C-31.64240203 34.18815214 -32.96352957 36.06837096 -33.84301758 38.86352539 C-34.45404516 42.59827563 -34.40087094 45.08312355 -33.03833008 48.64086914 C-26.70215915 55.61065716 -11.70587331 54.54929325 -2.88085938 55.00708008 C11.31921572 55.6514076 25.50360743 55.88966613 39.7175293 55.88867188 C43.20267886 55.89086349 46.68751304 55.90913885 50.17260742 55.92797852 C52.48510638 55.9309139 54.79760679 55.93289772 57.11010742 55.93383789 C58.10368256 55.94102341 59.09725769 55.94820892 60.12094116 55.95561218 C76.70327446 55.90567869 93.28390264 54.07768873 109.77050781 52.45166016 C146.69832351 48.85062862 183.35031396 47.7950489 220.43206561 47.67168486 C226.62940267 47.64884617 232.82614764 47.59310206 239.02319282 47.53038973 C245.83465014 47.462267 252.64608073 47.41670065 259.45778084 47.38134956 C262.31545706 47.36608159 265.17289622 47.34282181 268.03045464 47.31281853 C271.96516558 47.27260784 275.89954932 47.26535257 279.83447266 47.26171875 C280.99910034 47.24584213 282.16372803 47.22996552 283.36364746 47.21360779 C284.96048622 47.22007324 284.96048622 47.22007324 286.58958435 47.22666931 C287.51217765 47.22210189 288.43477095 47.21753447 289.38532162 47.21282864 C292.61755822 47.85963308 293.7829478 49.17971135 295.83666992 51.70336914 C298.72561439 58.42589705 298.16743897 65.68921136 298.14916992 72.89086914 C298.1652832 74.1419043 298.18139648 75.39293945 298.19799805 76.68188477 C298.20252084 85.37016834 298.13180263 95.17256167 292.83666992 102.45336914 C286.55081321 105.0724761 279.66992711 103.7755736 273.03271484 103.20141602 C263.09734159 102.48755721 253.1522629 102.50116986 243.19524574 102.44300842 C239.5637304 102.4216863 235.93229387 102.39468977 232.30082703 102.36633301 C224.58363955 102.30706348 216.86641343 102.25474604 209.14916992 102.20336914 C200.21227077 102.1437237 191.27541055 102.08109601 182.33858299 102.01148987 C178.79452706 101.98531757 175.25046612 101.96426284 171.70637512 101.94348145 C161.83072482 101.87489837 151.97042516 101.75192955 142.10620117 101.24584961 C141.35083226 101.20735649 140.59546335 101.16886337 139.81720448 101.1292038 C134.73615976 100.83553958 129.81705375 100.14173519 124.81860352 99.21606445 C97.7597799 94.56373683 69.63642097 95.40217792 42.27886581 95.39240265 C39.62190567 95.39088921 36.96496863 95.38598036 34.30801392 95.3805542 C17.24252976 95.35460859 0.20153173 95.46811606 -16.83520508 96.53540039 C-18.02374084 96.60425949 -19.21227661 96.67311859 -20.43682861 96.74406433 C-21.52316589 96.82320572 -22.60950317 96.90234711 -23.72875977 96.98388672 C-24.66451843 97.04997635 -25.6002771 97.11606598 -26.56439209 97.18415833 C-29.62690997 97.79598224 -31.62460992 98.9043876 -34.16333008 100.70336914 C-36.82788662 104.94243637 -36.12398637 108.99854972 -35.16333008 113.70336914 C-34.22993045 116.57461684 -33.06415961 119.31551667 -31.85083008 122.07836914 C-31.53758789 122.82151367 -31.2243457 123.5646582 -30.90161133 124.33032227 C-29.57232513 127.48051084 -28.20824275 130.60595293 -26.77661133 133.71118164 C-24.35035418 139.14259239 -23.17746557 143.88847247 -25.16333008 149.70336914 C-27.12772434 152.12668172 -28.11898261 152.68858665 -31.16333008 153.70336914 C-32.87052826 153.78307076 -34.58080066 153.80329096 -36.28979492 153.78857422 C-37.33452972 153.7813887 -38.37926453 153.77420319 -39.45565796 153.76679993 C-40.58379913 153.75231308 -41.71194031 153.73782623 -42.87426758 153.72290039 C-44.61469833 153.70171394 -44.61469833 153.70171394 -46.39028931 153.68009949 C-48.84658161 153.6469677 -51.30283218 153.61061011 -53.7590332 153.57128906 C-57.51621905 153.51619338 -61.2730478 153.48755982 -65.03051758 153.45922852 C-67.41595929 153.42376527 -69.80137794 153.38670847 -72.18676758 153.34790039 C-73.31086029 153.3435347 -74.434953 153.33916901 -75.59310913 153.33467102 C-83.34076561 153.16552394 -83.34076561 153.16552394 -87.38452148 150.89355469 C-89.55813815 148.2172556 -89.68634997 146.28728436 -89.45776367 142.88891602 C-88.44685706 135.38507191 -86.1604758 128.79286065 -83.10083008 121.89086914 C-82.37818524 120.23965767 -81.65803606 118.58735121 -80.94067383 116.93383789 C-80.62348389 116.21607178 -80.30629395 115.49830566 -79.97949219 114.75878906 C-77.91094519 109.54936723 -77.00112151 104.46413896 -79.24536133 99.13305664 C-80.12814082 97.38784992 -81.03595853 95.6550138 -81.97192383 93.93774414 C-89.0498024 80.66382104 -83.36203749 59.44752904 -81.03833008 45.51977539 C-80.33871896 41.15812649 -79.79092669 37.11214479 -80.16333008 32.70336914 C-82.23677486 30.00789092 -83.85014301 28.97105727 -87.19458008 28.28930664 C-110.01529976 26.84399439 -130.30992873 45.7479102 -146.16333008 59.70336914 C-146.65833008 60.19836914 -146.65833008 60.19836914 -147.16333008 60.70336914 C-149.60083008 60.89086914 -149.60083008 60.89086914 -152.16333008 60.70336914 C-152.82333008 60.04336914 -153.48333008 59.38336914 -154.16333008 58.70336914 C-153.98771299 52.76165776 -151.97604072 49.14012278 -148.66333008 44.45336914 C-148.2126416 43.80078125 -147.76195312 43.14819336 -147.29760742 42.47583008 C-128.55379042 15.66513708 -103.61141013 -0.86964344 -71.78833008 -8.17163086 C-49.97258351 -11.83667628 -19.79715371 -11.86578076 0 0 Z " fill="#053D6F" transform="translate(437.163330078125,295.296630859375)"/>
<path d="M0 0 C3.48240279 3.48240279 2.0625 14.52852787 2.0625 19.25 C2.04684498 20.833393 2.02804921 22.41677806 2 24 C1.24976563 23.7834375 0.49953125 23.566875 -0.2734375 23.34375 C-8.90406252 20.99587216 -17.54729026 19.0685071 -26 23 C-29.58567193 25.4901208 -29.58567193 25.4901208 -32 29 C-32.66 29 -33.32 29 -34 29 C-34.74789331 40.20972343 -34.74789331 40.20972343 -30 50 C-25.62494441 53.20126018 -20.64594962 53.7518603 -15.390625 54.5703125 C-13 55 -13 55 -11 56 C-8.76218747 56.22676252 -6.51829692 56.39432895 -4.2734375 56.53515625 C-3.58676498 56.57826935 -2.90009247 56.62138245 -2.19261169 56.665802 C0.07957998 56.8048643 2.35213344 56.93496091 4.625 57.0625 C5.40775299 57.10702301 6.19050598 57.15154602 6.99697876 57.19741821 C34.00371923 58.70227107 60.98894774 58.08621385 88 57 C89.29043213 56.95190186 89.29043213 56.95190186 90.60693359 56.90283203 C97.35703327 56.63972531 103.98588751 56.04787482 110.65927124 55.02662659 C147.73122847 49.41494173 184.81114591 49.46635139 222.20214635 49.3385365 C230.05044648 49.31114299 237.89863138 49.26721161 245.74684751 49.22227156 C261.83117165 49.1305216 277.91551776 49.05835219 294 49 C296.71347731 54.34559576 298.14306572 58.07371314 298.125 64.0625 C298.12757813 64.91972656 298.13015625 65.77695312 298.1328125 66.66015625 C298 69 298 69 297 72 C255.6227458 72.09156203 214.24550329 72.16204204 172.86816785 72.20426132 C167.98283114 72.20926412 163.09749462 72.21444142 158.2121582 72.21972656 C156.75328877 72.22130043 156.75328877 72.22130043 155.26494723 72.22290608 C139.51853784 72.24030975 123.77218688 72.27184724 108.02581216 72.30861118 C91.86772503 72.34602165 75.7096685 72.36823608 59.55153984 72.37635398 C49.58166605 72.38184153 39.61195743 72.39917145 29.64213448 72.43166587 C22.80479147 72.45281504 15.9675338 72.45919912 9.13016046 72.45400551 C5.1857382 72.45144436 1.24160449 72.45536132 -2.70276642 72.4768219 C-6.31726631 72.49634375 -9.93128467 72.49723396 -13.54580713 72.48359558 C-15.46584508 72.48111576 -17.3858777 72.49831727 -19.3058328 72.51632524 C-29.30678951 72.44727529 -36.85731658 70.14268342 -44 63 C-49.71655762 55.35960087 -49.64813488 46.17446095 -49 37 C-47.97841438 31.39454646 -46.72981021 26.03234578 -44 21 C-43.34 21 -42.68 21 -42 21 C-42 20.34 -42 19.68 -42 19 C-41.34 19 -40.68 19 -40 19 C-39.67 17.02 -39.34 15.04 -39 13 C-38.34 13 -37.68 13 -37 13 C-36.75894531 12.42378906 -36.51789063 11.84757812 -36.26953125 11.25390625 C-34.75631943 8.56737326 -33.00814596 6.96172731 -30.6875 4.9375 C-29.92824219 4.26589844 -29.16898437 3.59429687 -28.38671875 2.90234375 C-20.20422281 -3.61954745 -9.24578529 -5.92678544 0 0 Z " fill="#2270A5" transform="translate(432,299)"/>
<path d="M0 0 C0.66 0.33 1.32 0.66 2 1 C2.40826939 9.16538779 1.95289908 17.93976376 -3 24.75 C-9.28585671 27.36910696 -16.16674281 26.07220446 -22.80395508 25.49804688 C-32.73932833 24.78418807 -42.68440702 24.79780072 -52.64142418 24.73963928 C-56.27293953 24.71831715 -59.90437605 24.69132063 -63.5358429 24.66296387 C-71.25303037 24.60369434 -78.97025649 24.5513769 -86.6875 24.5 C-95.62439915 24.44035455 -104.56125937 24.37772687 -113.49808693 24.30812073 C-117.04214286 24.28194843 -120.5862038 24.2608937 -124.1302948 24.2401123 C-134.00594511 24.17152923 -143.86624477 24.04856041 -153.73046875 23.54248047 C-154.48583766 23.50398735 -155.24120657 23.46549423 -156.01946545 23.42583466 C-161.10051016 23.13217043 -166.01961617 22.43836605 -171.01806641 21.51269531 C-198.07689002 16.86036769 -226.20024895 17.69880878 -253.55780411 17.68903351 C-256.21476425 17.68752007 -258.87170129 17.68261122 -261.52865601 17.67718506 C-278.59414016 17.65123945 -295.63513819 17.76474692 -312.671875 18.83203125 C-313.86041077 18.90089035 -315.04894653 18.96974945 -316.27349854 19.04069519 C-317.90300446 19.15940727 -317.90300446 19.15940727 -319.56542969 19.28051758 C-320.50118835 19.34660721 -321.43694702 19.41269684 -322.40106201 19.48078918 C-325.4757053 20.09503549 -327.46749481 21.16700295 -330 23 C-331.34689915 25.57099402 -331.34689915 25.57099402 -332 28 C-332.66 28 -333.32 28 -334 28 C-334.33 29.32 -334.66 30.64 -335 32 C-335.29130183 27.04786889 -335.30895436 23.84265668 -332 20 C-326.12491818 16.85933126 -320.64766203 16.31379728 -314.0625 15.875 C-312.47695313 15.75825928 -312.47695313 15.75825928 -310.859375 15.63916016 C-307.57384409 15.40677608 -304.28775545 15.19826657 -301 15 C-300.02788574 14.94070313 -299.05577148 14.88140625 -298.05419922 14.8203125 C-261.07160003 12.68339877 -223.84666178 13.79256754 -186.97265625 17.0859375 C-186.23552399 17.14959 -185.49839172 17.21324249 -184.73892212 17.27882385 C-180.02315185 17.69503458 -175.32492146 18.19229754 -170.62353516 18.74853516 C-143.24343437 21.81149687 -115.77618379 21.524157 -88.2578125 21.61126709 C-77.66010692 21.64596956 -67.06250741 21.70887097 -56.46492767 21.76975632 C-52.81786608 21.78847363 -49.17083538 21.80045783 -45.52374268 21.81118774 C-31.98899387 21.86516023 -18.51279706 22.21867542 -5 23 C-4.51280893 21.41366107 -4.02860737 19.82640383 -3.5456543 18.23876953 C-3.27569138 17.35496613 -3.00572845 16.47116272 -2.72758484 15.56057739 C-1.81733843 12.35716212 -1.26845287 9.17188997 -0.8125 5.875 C-0.65394531 4.75867188 -0.49539063 3.64234375 -0.33203125 2.4921875 C-0.16767578 1.25855469 -0.16767578 1.25855469 0 0 Z " fill="#1A4D76" transform="translate(733,373)"/>
<path d="M0 0 C2.69705026 -0.0213927 5.39406459 -0.03667422 8.09116364 -0.05028152 C9.27032443 -0.06181558 9.27032443 -0.06181558 10.47330666 -0.07358265 C15.80077848 -0.09049363 15.80077848 -0.09049363 18.02915192 1.02369308 C18.02915192 1.68369308 18.02915192 2.34369308 18.02915192 3.02369308 C17.36915192 3.02369308 16.70915192 3.02369308 16.02915192 3.02369308 C15.69915192 4.01369308 15.36915192 5.00369308 15.02915192 6.02369308 C15.02915192 5.36369308 15.02915192 4.70369308 15.02915192 4.02369308 C14.46969879 4.04874924 13.91024567 4.07380539 13.33383942 4.09962082 C7.15293417 4.37351343 0.97136177 4.62719044 -5.21071625 4.8731041 C-7.5824718 4.9680902 -9.95414892 5.06507541 -12.32570648 5.16488266 C-29.59410211 5.87772445 -46.82932194 6.08991165 -64.11147308 6.01588058 C-65.12640335 6.01200647 -66.14133362 6.00813236 -67.18701935 6.00414085 C-76.65834536 5.96748197 -86.12959076 5.92263482 -95.6007309 5.85230637 C-127.55659551 5.56840147 -127.55659551 5.56840147 -159.35268402 8.37183762 C-165.23496088 9.1624523 -171.04536644 9.16426198 -176.97084808 9.02369308 C-176.97084808 8.69369308 -176.97084808 8.36369308 -176.97084808 8.02369308 C-171.99102193 7.44827371 -167.01056095 6.87882621 -162.02944183 6.31470871 C-160.33785189 6.12230649 -158.64644098 5.92832301 -156.95522308 5.73267746 C-154.5129781 5.45043688 -152.07012857 5.17404155 -149.62709808 4.89869308 C-148.50784943 4.76745041 -148.50784943 4.76745041 -147.36598969 4.63355637 C-142.53701455 4.09655337 -137.82994627 3.9468694 -132.97084808 4.02369308 C-132.97084808 3.36369308 -132.97084808 2.70369308 -132.97084808 2.02369308 C-124.65416095 1.2981961 -116.40337987 0.86558829 -108.0562973 0.81837082 C-106.94375076 0.80847122 -105.83120422 0.79857162 -104.68494415 0.78837204 C-101.04849529 0.75708459 -97.41203386 0.73210417 -93.77553558 0.70728683 C-91.21646074 0.68666315 -88.65738888 0.66566549 -86.09832001 0.64431381 C-80.74757765 0.60054218 -75.39682572 0.5594722 -70.0460434 0.52100754 C-62.56575745 0.46722868 -55.0855278 0.40750251 -47.60529685 0.34661186 C-41.72455257 0.29897311 -35.84379465 0.2530565 -29.96303558 0.20728683 C-28.73783077 0.19772902 -27.51262596 0.1881712 -26.25029373 0.17832375 C-19.49934506 0.12647695 -12.74840156 0.08000244 -5.99736023 0.04201508 C-3.99822773 0.02991267 -1.99910556 0.01594325 0 0 Z " fill="#032F5A" transform="translate(712.9708480834961,342.9763069152832)"/>
<path d="M0 0 C0 0.33 0 0.66 0 1 C-17.82 2.98 -17.82 2.98 -36 5 C-32.57625 4.690625 -29.1525 4.38125 -25.625 4.0625 C-24.03872803 3.91953491 -24.03872803 3.91953491 -22.42041016 3.77368164 C-21.11789307 3.65561157 -21.11789307 3.65561157 -19.7890625 3.53515625 C-18.91975098 3.456604 -18.05043945 3.37805176 -17.15478516 3.29711914 C-15.38655337 3.13058624 -13.61884711 2.95670017 -11.85414124 2.75622559 C-5.89718177 2.09986574 -0.04205869 1.86148381 5.94775391 1.88647461 C6.88555695 1.88632858 7.82335999 1.88618256 8.7895813 1.8860321 C11.85193291 1.88672202 14.91422168 1.89447076 17.9765625 1.90234375 C20.11461351 1.90421121 22.25266496 1.90563356 24.39071655 1.90663147 C29.99002281 1.91043083 35.58930271 1.92023883 41.18859863 1.93133545 C46.91348921 1.94160531 52.63838409 1.94614099 58.36328125 1.95117188 C69.57553235 1.96186363 80.78776397 1.97890873 92 2 C92 2.33 92 2.66 92 3 C90.64652214 3.00546844 90.64652214 3.00546844 89.26570129 3.01104736 C37.16222106 2.8775663 37.16222106 2.8775663 -14.8125 5.9375 C-15.70004974 6.02286011 -16.58759949 6.10822021 -17.50204468 6.19616699 C-25.65944769 7.00346664 -33.73043772 8.02807352 -41.7824707 9.59155273 C-47.77184807 10.69473762 -53.92580033 10.75141748 -60 11 C-61.10037598 11.04511719 -62.20075195 11.09023438 -63.33447266 11.13671875 C-90.03440982 12.18391385 -116.68272283 12.55808939 -143.375 11.125 C-144.14977692 11.08579437 -144.92455383 11.04658875 -145.72280884 11.00619507 C-147.90714397 10.89264618 -150.09018408 10.76539044 -152.2734375 10.6328125 C-153.52560059 10.55949707 -154.77776367 10.48618164 -156.06787109 10.41064453 C-159 10 -159 10 -161 8 C-159.21613525 6.21613525 -156.66552404 6.82667561 -154.25 6.8125 C-149.1435462 6.85412689 -144.17282575 7.14545176 -139.09976196 7.71211243 C-127.02352216 9.04926258 -115.03202495 9.34023512 -102.88964844 9.31567383 C-99.63442563 9.31250916 -96.38011195 9.33611178 -93.125 9.36132812 C-78.86775236 9.40199869 -65.07980905 8.23362803 -51 6 C-51 5.34 -51 4.68 -51 4 C-41.77732995 2.59035612 -32.54779297 1.63515786 -23.25 0.875 C-22.20980713 0.78750488 -21.16961426 0.70000977 -20.09790039 0.60986328 C-13.38421358 0.08127677 -6.73342782 -0.10484576 0 0 Z " fill="#07406A" transform="translate(580,346)"/>
<path d="M0 0 C0.99 0.99 0.99 0.99 2 2 C1.24074219 2.13277344 0.48148437 2.26554687 -0.30078125 2.40234375 C-1.29464844 2.57894531 -2.28851563 2.75554687 -3.3125 2.9375 C-4.79169922 3.19853516 -4.79169922 3.19853516 -6.30078125 3.46484375 C-9.08189213 3.95746847 -9.08189213 3.95746847 -12 5 C-12 5.66 -12 6.32 -12 7 C-13.3303125 7.6496875 -13.3303125 7.6496875 -14.6875 8.3125 C-17.95298315 9.89498922 -17.95298315 9.89498922 -20.625 11.75 C-21.40875 12.1625 -22.1925 12.575 -23 13 C-23.92039062 12.68869141 -23.92039062 12.68869141 -24.859375 12.37109375 C-27.12642081 11.73887368 -27.12642081 11.73887368 -29.2890625 13.36328125 C-30.05992187 14.00652344 -30.83078125 14.64976562 -31.625 15.3125 C-32.40101563 15.94800781 -33.17703125 16.58351563 -33.9765625 17.23828125 C-35.36128154 18.4438957 -36.70174097 19.70174097 -38 21 C-39.99117408 21.69258229 -41.9921136 22.35747635 -44 23 C-46.26857146 23.84077872 -46.26857146 23.84077872 -48 25 C-48.33 25.99 -48.66 26.98 -49 28 C-49.66 28.33 -50.32 28.66 -51 29 C-51 30.32 -51 31.64 -51 33 C-51.598125 33.061875 -52.19625 33.12375 -52.8125 33.1875 C-55.93092447 34.34577195 -56.56824742 36.06831615 -58 39 C-58.10183594 39.66515625 -58.20367187 40.3303125 -58.30859375 41.015625 C-59 43 -59 43 -60.9609375 44.30859375 C-61.75757813 44.68113281 -62.55421875 45.05367188 -63.375 45.4375 C-67.20487459 47.39810352 -69.25011577 48.9169368 -71 53 C-70.34 53 -69.68 53 -69 53 C-69 53.66 -69 54.32 -69 55 C-68.34 55 -67.68 55 -67 55 C-67 57 -67 57 -68.42578125 58.54296875 C-69.04839844 59.08566406 -69.67101562 59.62835938 -70.3125 60.1875 C-70.92738281 60.73792969 -71.54226563 61.28835938 -72.17578125 61.85546875 C-72.77777344 62.23316406 -73.37976563 62.61085938 -74 63 C-74.99 62.67 -75.98 62.34 -77 62 C-78.11707905 58.11374079 -78.21294592 56.44675839 -76.4453125 52.73828125 C-75.69170385 51.58317215 -74.91697287 50.44165101 -74.125 49.3125 C-73.50588745 48.39730591 -73.50588745 48.39730591 -72.87426758 47.46362305 C-58.02352934 25.84381613 -38.29428278 9.9629183 -13.375 1.4375 C-12.23804688 1.04195923 -12.23804688 1.04195923 -11.078125 0.63842773 C-7.08230539 -0.65367926 -4.1000017 -1.51654338 0 0 Z " fill="#123E64" transform="translate(363,290)"/>
<path d="M0 0 C10.44583328 -0.10098013 20.87390642 -0.06354942 31.3125 0.375 C32.17641357 0.40585693 33.04032715 0.43671387 33.93041992 0.46850586 C34.75388916 0.5072583 35.5773584 0.54601074 36.42578125 0.5859375 C37.14161377 0.6173584 37.85744629 0.6487793 38.5949707 0.68115234 C41 1 41 1 44.1295929 1.98182678 C48.15991124 3.14747281 52.15499706 3.44280134 56.33154297 3.60961914 C57.5565492 3.6657958 57.5565492 3.6657958 58.80630302 3.72310734 C68.92326924 4.14352981 79.0476377 4.18456143 89.17187881 4.22979546 C92.79284423 4.2465449 96.4137194 4.26978714 100.03463745 4.29469299 C110.31601263 4.36455013 120.59742308 4.42524925 130.87890625 4.47680664 C137.20978235 4.5090045 143.54054871 4.55036369 149.87133408 4.59700203 C152.25098539 4.61276725 154.63066167 4.62520216 157.01034927 4.63390923 C173.09448948 4.69362274 188.98580419 5.48290554 205 7 C205 6.34 205 5.68 205 5 C206.32 4.67 207.64 4.34 209 4 C208.67 5.32 208.34 6.64 208 8 C190.79183624 7.98595618 173.58399798 7.94262646 156.37599659 7.86790943 C148.37913467 7.83381178 140.38243645 7.80810946 132.38549805 7.80444336 C95.93776563 7.78284463 60.06294022 6.99910407 23.80405521 2.8427515 C15.88007241 1.94497514 7.96505491 1.38579529 0 1 C0 0.67 0 0.34 0 0 Z " fill="#08355B" transform="translate(520,388)"/>
<path d="M0 0 C1.32 0.33 2.64 0.66 4 1 C4.02917228 4.22914752 4.04685663 7.45826083 4.0625 10.6875 C4.07087891 11.59951172 4.07925781 12.51152344 4.08789062 13.45117188 C4.09111328 14.33740234 4.09433594 15.22363281 4.09765625 16.13671875 C4.10289307 16.94842529 4.10812988 17.76013184 4.11352539 18.59643555 C3.9929791 21.14864673 3.559949 23.51026137 3 26 C-3.35219042 25.45118943 -9.67873638 24.83488387 -16 24 C-15.34 24.33 -14.68 24.66 -14 25 C-14 25.66 -14 26.32 -14 27 C-15.01320313 27.14695312 -15.01320313 27.14695312 -16.046875 27.296875 C-19.92203308 27.94646797 -23.18426505 28.50260064 -26.5625 30.5625 C-28.7305921 34.23883009 -29.1892832 37.76005637 -29 42 C-27.7584455 45.24183674 -26.95547982 46.53176305 -23.83984375 48.05859375 C-20.46453003 49.17750793 -17.21200714 49.66384953 -13.6875 50.125 C-12.43324219 50.29257812 -11.17898438 50.46015625 -9.88671875 50.6328125 C-8.45779297 50.81457031 -8.45779297 50.81457031 -7 51 C-7 51.33 -7 51.66 -7 52 C-9.89684158 52.10829314 -12.78961019 52.18743954 -15.6875 52.25 C-16.50412109 52.28351563 -17.32074219 52.31703125 -18.16210938 52.3515625 C-22.28618947 52.41834922 -24.42235292 52.36102942 -28 50.125 C-29.86944858 48.13871089 -31.00755788 46.52621629 -32 44 C-32.33 44.99 -32.66 45.98 -33 47 C-34.71301774 43.28281921 -35.24878195 40.39610651 -35.1875 36.3125 C-35.18105469 35.35988281 -35.17460937 34.40726562 -35.16796875 33.42578125 C-35 31 -35 31 -34 29 C-33.34 29 -32.68 29 -32 29 C-31.6596875 28.13375 -31.6596875 28.13375 -31.3125 27.25 C-29.27256873 23.75297497 -26.65599228 21.56776878 -22.8125 20.25 C-21.4203125 20.12625 -21.4203125 20.12625 -20 20 C-19.30132812 19.93683594 -18.60265625 19.87367188 -17.8828125 19.80859375 C-10.57358386 19.44663514 -4.82361218 21.46098151 2 24 C1.34 16.08 0.68 8.16 0 0 Z " fill="#0F4169" transform="translate(432,299)"/>
<path d="M0 0 C-3.30268673 2.20179115 -5.05236974 2.41349362 -8.9375 2.875 C-30.96629858 6.05340601 -49.52526488 19.52526488 -65 35 C-67.4375 35.1875 -67.4375 35.1875 -70 35 C-70.66 34.34 -71.32 33.68 -72 33 C-71.625 29.375 -71.625 29.375 -71 26 C-70.01 26 -69.02 26 -68 26 C-68 27.65 -68 29.3 -68 31 C-64.87311213 29.58378621 -62.46099085 27.87668024 -59.875 25.625 C-59.19179688 25.03976562 -58.50859375 24.45453125 -57.8046875 23.8515625 C-55.99345245 21.99328239 -55.01347365 20.3717373 -54 18 C-53.34 18 -52.68 18 -52 18 C-51.67 16.02 -51.34 14.04 -51 12 C-50.34 12 -49.68 12 -49 12 C-48.67 11.01 -48.34 10.02 -48 9 C-47.21625 9.226875 -46.4325 9.45375 -45.625 9.6875 C-40.76606785 10.10637346 -36.41583353 9.09564981 -32 7 C-31.67 6.01 -31.34 5.02 -31 4 C-26.59118988 1.24365741 -22.28172362 0.30672587 -17.1875 -0.25 C-16.48625 -0.3329834 -15.785 -0.4159668 -15.0625 -0.50146484 C-9.82373316 -1.05947582 -5.1682761 -0.92290645 0 0 Z " fill="#0E3B61" transform="translate(355,321)"/>
<path d="M0 0 C0 0.66 0 1.32 0 2 C2.31 2 4.62 2 7 2 C7 2.33 7 2.66 7 3 C5.93687088 2.99555878 4.87374176 2.99111755 3.77839661 2.98654175 C-6.3814116 2.9454926 -16.54120238 2.91577948 -26.70107555 2.89637566 C-31.92078877 2.88606378 -37.14043357 2.87214403 -42.36010742 2.84912109 C-71.25184263 2.67827094 -71.25184263 2.67827094 -100.11328125 3.8203125 C-101.85535103 3.92471146 -101.85535103 3.92471146 -103.63261414 4.03121948 C-105.20726189 4.1513591 -105.20726189 4.1513591 -106.8137207 4.27392578 C-107.70452835 4.3412088 -108.595336 4.40849182 -109.51313782 4.47781372 C-112.51803793 5.10877655 -114.51377282 6.21331983 -117 8 C-118.34689915 10.57099402 -118.34689915 10.57099402 -119 13 C-119.66 13 -120.32 13 -121 13 C-121.33 14.32 -121.66 15.64 -122 17 C-122.29130183 12.04786889 -122.30895436 8.84265668 -119 5 C-113.12491818 1.85933126 -107.64766203 1.31379728 -101.0625 0.875 C-99.47695313 0.75825928 -99.47695313 0.75825928 -97.859375 0.63916016 C-94.57384409 0.40677608 -91.28775545 0.19826657 -88 0 C-86.54182861 -0.08894531 -86.54182861 -0.08894531 -85.05419922 -0.1796875 C-56.71969141 -1.81690068 -28.33927864 -1.07069622 0 0 Z " fill="#194973" transform="translate(520,388)"/>
<path d="M0 0 C3.36938083 2.24625388 3.60689747 3.2909613 4.43310547 7.10400391 C4.62090576 8.10439697 4.62090576 8.10439697 4.8125 9.125 C4.94285645 9.80353027 5.07321289 10.48206055 5.20751953 11.18115234 C6.53080566 18.86136518 5.13207411 23.45754932 1 30 C0.28856912 31.98451771 -0.38991336 33.98202112 -1 36 C-1.66 36 -2.32 36 -3 36 C-3.33 37.32 -3.66 38.64 -4 40 C-3.34 40 -2.68 40 -2 40 C-2 40.99 -2 41.98 -2 43 C-3.485 43.495 -3.485 43.495 -5 44 C-5.66 47.3 -6.32 50.6 -7 54 C-3.64943285 54.83764179 -1.28099072 55.13078382 2.10400391 55.14526367 C3.11830475 55.15164352 4.13260559 55.15802338 5.17764282 55.16459656 C6.26628632 55.16570938 7.35492981 55.1668222 8.4765625 55.16796875 C9.59815765 55.17129715 10.71975281 55.17462555 11.87533569 55.17805481 C14.24403473 55.18311441 16.61274088 55.18546343 18.98144531 55.18530273 C22.61795641 55.18749575 26.25416732 55.20567973 29.890625 55.22460938 C32.19010313 55.2275421 34.4895827 55.2295277 36.7890625 55.23046875 C37.88175446 55.23765427 38.97444641 55.24483978 40.10025024 55.25224304 C41.10824677 55.24916641 42.11624329 55.24608978 43.15478516 55.24291992 C44.04428864 55.24434494 44.93379211 55.24576996 45.85025024 55.24723816 C48.21329708 55.20116024 48.21329708 55.20116024 50 53 C49.67 54.32 49.34 55.64 49 57 C47.87980469 57.04898438 46.75960937 57.09796875 45.60546875 57.1484375 C44.13278797 57.22347856 42.66013293 57.29902582 41.1875 57.375 C40.44951172 57.4059375 39.71152344 57.436875 38.95117188 57.46875 C35.18106885 57.67346148 33.20349259 57.86433827 30 60 C27.30123488 60.21987748 24.70813145 60.32799084 22.0078125 60.3359375 C20.83338089 60.3459227 20.83338089 60.3459227 19.63522339 60.35610962 C17.97933296 60.36623027 16.32340179 60.37092682 14.66748047 60.37060547 C12.14091291 60.3749725 9.61610151 60.41127807 7.08984375 60.44921875 C5.47917263 60.45508841 3.86849322 60.45905681 2.2578125 60.4609375 C1.50557404 60.47530853 0.75333557 60.48967957 -0.021698 60.50448608 C-3.73390097 60.47234512 -5.82021607 60.11476291 -8.97900391 58.09838867 C-11 56 -11 56 -11.59375 53.96484375 C-11.3934368 49.63307085 -11.03564826 47.92206166 -8 45 C-6.90763542 42.89994642 -6.90763542 42.89994642 -6.02734375 40.54296875 C-5.68509766 39.67736328 -5.34285156 38.81175781 -4.99023438 37.91992188 C-4.64283203 37.01822266 -4.29542969 36.11652344 -3.9375 35.1875 C-3.58623047 34.29740234 -3.23496094 33.40730469 -2.87304688 32.49023438 C0.95059901 23.21771055 0.95059901 23.21771055 2.25 13.375 C2.25515625 12.45460938 2.2603125 11.53421875 2.265625 10.5859375 C1.98912918 7.89416935 1.22103299 6.37423081 0 4 C0 2.68 0 1.36 0 0 Z " fill="#0E365B" transform="translate(359,388)"/>
<path d="M0 0 C0.33 0 0.66 0 1 0 C1.27628792 8.53614539 0.47256405 16.47764109 -1 24.875 C-3.35804985 39.40329844 -5.21800904 52.49006837 2.1015625 66.0390625 C4.90763866 72.16362872 3.24466584 78.92965084 1.05175781 84.98242188 C-0.00408881 87.72170726 -1.09987888 90.44161585 -2.23046875 93.15087891 C-3.27798662 95.66797926 -4.25951858 98.21001545 -5.25 100.75 C-6.37631753 103.57567381 -7.61028856 106.29371983 -9 109 C-10.92967658 102.01223176 -8.48847906 97.24254451 -5.625 90.8125 C-4.78177152 88.86157593 -3.94054336 86.90978575 -3.1015625 84.95703125 C-2.72338379 84.10085205 -2.34520508 83.24467285 -1.95556641 82.36254883 C0.19312901 77.05009979 1.22154883 71.90172972 -1.08203125 66.4296875 C-1.96481074 64.68448078 -2.87262845 62.95164466 -3.80859375 61.234375 C-10.35655326 48.95426733 -5.68930682 29.96886252 -3.5625 16.75 C-3.4472699 16.03188141 -3.33203979 15.31376282 -3.21331787 14.57388306 C-1.25217694 2.50435387 -1.25217694 2.50435387 0 0 Z " fill="#385E7F" transform="translate(359,328)"/>
<path d="M0 0 C4.84680714 0.03791181 9.49756018 0.29918357 14.31221008 0.90908813 C32.1764038 3.06425797 50.28142252 2.41175807 68.24047852 2.3248291 C72.9877747 2.30408869 77.7350931 2.29517612 82.48242188 2.28515625 C91.73833851 2.26393348 100.99415806 2.22995998 110.25 2.1875 C110.25 2.5175 110.25 2.8475 110.25 3.1875 C77.26068484 5.73766088 43.9048093 6.08584698 10.875 4.3125 C10.10022308 4.27329437 9.32544617 4.23408875 8.52719116 4.19369507 C6.34285603 4.08014618 4.15981592 3.95289044 1.9765625 3.8203125 C0.09831787 3.71033936 0.09831787 3.71033936 -1.81787109 3.59814453 C-4.75 3.1875 -4.75 3.1875 -6.75 1.1875 C-4.96613525 -0.59636475 -2.41552404 0.01417561 0 0 Z " fill="#0B4B7A" transform="translate(425.75,352.8125)"/>
<path d="M0 0 C0.495 0.99 0.495 0.99 1 2 C1.66 2 2.32 2 3 2 C4.66657362 5.63669366 6.30432732 9.28569914 7.9375 12.9375 C8.64036133 14.46987305 8.64036133 14.46987305 9.35742188 16.03320312 C12.07167381 22.14515172 13.81319125 27.28822833 14 34 C12.78013332 37.01756494 11.92855199 38.43854996 9.15234375 40.1171875 C6.82391182 41.07222492 5.25313345 41.23702242 2.75 41.1875 C2.04359375 41.18105469 1.3371875 41.17460937 0.609375 41.16796875 C-2 41 -2 41 -5.328125 40.5234375 C-12.01112167 39.65245679 -18.77037461 39.63110712 -25.5 39.4375 C-26.90886473 39.39422263 -28.31771907 39.35060569 -29.7265625 39.30664062 C-33.1509546 39.20109429 -36.57541292 39.09898202 -40 39 C-40 38.67 -40 38.34 -40 38 C-39.08412109 37.97494385 -38.16824219 37.9498877 -37.22460938 37.92407227 C-33.74293273 37.82748071 -30.26134507 37.72836708 -26.77978516 37.62768555 C-25.28860165 37.58504837 -23.79739112 37.54334363 -22.30615234 37.50268555 C-11.85271845 37.21682189 -1.43268461 36.71958683 9 36 C10.61732141 25.55353255 6.648573 17.80876477 2.33789062 8.44555664 C0 3.30858016 0 3.30858016 0 0 Z " fill="#1E4A6F" transform="translate(399,408)"/>
<path d="M0 0 C4.05755205 0.00579931 8.1150394 0.00233244 12.1725893 -0.00357246 C15.34942614 -0.00719084 18.52624764 -0.00603535 21.70308495 -0.00344467 C23.20086869 -0.00278421 24.69865389 -0.0035725 26.19643593 -0.00592422 C33.35709989 -0.01473988 40.40405965 -0.01931586 47.48999023 1.13037109 C47.48999023 1.46037109 47.48999023 1.79037109 47.48999023 2.13037109 C46.77701782 2.12592987 46.06404541 2.12148865 45.32946777 2.11691284 C2.73946042 1.74153035 2.73946042 1.74153035 -39.82250977 3.00537109 C-41.0169873 3.06431549 -41.0169873 3.06431549 -42.2355957 3.12445068 C-52.19220579 3.63193513 -61.83763701 4.64686791 -71.51000977 7.13037109 C-69.88481783 4.26238532 -68.78472161 3.23646834 -65.67675781 2.03613281 C-60.18744954 0.60652734 -54.54425085 0.65822017 -48.90454102 0.51318359 C-47.64503128 0.47564972 -46.38552155 0.43811584 -45.08784485 0.39944458 C-30.06219449 -0.02027176 -15.03032598 -0.02158342 0 0 Z " fill="#083358" transform="translate(472.510009765625,385.86962890625)"/>
<path d="M0 0 C1.12857422 0.04382813 2.25714844 0.08765625 3.41992188 0.1328125 C10.77856437 0.43748315 18.10344749 0.95456263 25.4375 1.625 C25.4375 1.955 25.4375 2.285 25.4375 2.625 C23.91056519 2.64687378 23.91056519 2.64687378 22.3527832 2.66918945 C3.14964125 2.96335645 -15.98225337 3.51178582 -35.125 5.125 C-35.90918304 5.19071198 -36.69336609 5.25642395 -37.50131226 5.3241272 C-46.42752359 6.07214837 -46.42752359 6.07214837 -55.31640625 7.16381836 C-58.59385017 7.62945401 -61.69277416 7.72465984 -65 7.6875 C-66.05058594 7.67847656 -67.10117187 7.66945313 -68.18359375 7.66015625 C-68.96863281 7.64855469 -69.75367188 7.63695312 -70.5625 7.625 C-70.5625 7.295 -70.5625 6.965 -70.5625 6.625 C-65.58267385 6.04958063 -60.60221287 5.48013312 -55.62109375 4.91601562 C-53.92950381 4.72361341 -52.23809289 4.52962992 -50.546875 4.33398438 C-48.10463001 4.0517438 -45.66178049 3.77534846 -43.21875 3.5 C-42.09950134 3.36875732 -42.09950134 3.36875732 -40.9576416 3.23486328 C-36.12866647 2.69786029 -31.42159818 2.54817631 -26.5625 2.625 C-26.5625 1.965 -26.5625 1.305 -26.5625 0.625 C-17.63989824 -0.24931374 -8.95143191 -0.41038083 0 0 Z " fill="#012750" transform="translate(606.5625,344.375)"/>
<path d="M0 0 C0.99902344 -0.0721875 1.99804688 -0.144375 3.02734375 -0.21875 C6.92265772 0.70369243 8.48611028 2.20462023 10.90454102 5.32910156 C13.0295171 9.3129277 12.77330147 13.20974726 12.5625 17.625 C12.54058594 18.54627686 12.51867187 19.46755371 12.49609375 20.41674805 C12.26645906 27.54852774 11.51556466 34.50712634 10.0625 41.5 C9.4025 41.5 8.7425 41.5 8.0625 41.5 C8.00794297 44.47941998 7.96856149 47.45781531 7.9375 50.4375 C7.92074219 51.26830078 7.90398437 52.09910156 7.88671875 52.95507812 C7.84142712 58.77505267 8.6168305 63.8596123 10.0625 69.5 C4.79738902 63.09029968 5.40672525 55.46587185 6.0625 47.5 C6.78807021 41.95068197 7.68536893 36.42979524 8.6394043 30.91552734 C10.49846545 21.23790652 10.49846545 21.23790652 10.0625 11.5 C8.37229931 9.50840689 6.74724749 8.12609749 4.59375 6.65625 C4.0884375 6.2746875 3.583125 5.893125 3.0625 5.5 C3.0625 4.84 3.0625 4.18 3.0625 3.5 C-2.97253763 1.99124059 -8.83488369 2.85813906 -14.9375 3.5 C-10.16844439 0.85052466 -5.39926379 0.27795438 0 0 Z " fill="#0E375C" transform="translate(348.9375,318.5)"/>
<path d="M0 0 C0.66 0.66 1.32 1.32 2 2 C1.24074219 2.13277344 0.48148437 2.26554687 -0.30078125 2.40234375 C-1.29464844 2.57894531 -2.28851563 2.75554687 -3.3125 2.9375 C-4.79169922 3.19853516 -4.79169922 3.19853516 -6.30078125 3.46484375 C-9.08189213 3.95746847 -9.08189213 3.95746847 -12 5 C-12 5.66 -12 6.32 -12 7 C-12.886875 7.433125 -13.77375 7.86625 -14.6875 8.3125 C-17.95298315 9.89498922 -17.95298315 9.89498922 -20.625 11.75 C-23.43431995 13.22858945 -24.08844056 12.87346783 -27 12 C-27.99 12.66 -28.98 13.32 -30 14 C-30.99 13.67 -31.98 13.34 -33 13 C-31.68 12.67 -30.36 12.34 -29 12 C-29.33 11.01 -29.66 10.02 -30 9 C-24.25131358 5.82131457 -18.38772935 3.26482133 -12.1875 1.125 C-10.94355469 0.69445312 -9.69960938 0.26390625 -8.41796875 -0.1796875 C-5.02816789 -0.99323971 -3.25764923 -1.1346211 0 0 Z " fill="#073459" transform="translate(363,290)"/>
<path d="M0 0 C1.32 0 2.64 0 4 0 C4 0.66 4 1.32 4 2 C4.99 2.33 5.98 2.66 7 3 C-9.4356821 5.12699884 -25.6966639 5.23727628 -42.25 5.125 C-44.85676736 5.11494152 -47.46353852 5.10582079 -50.0703125 5.09765625 C-56.38029282 5.07588993 -62.69012798 5.04264342 -69 5 C-69 4.67 -69 4.34 -69 4 C-64.20933779 3.2207936 -59.65180348 2.89131506 -54.80078125 2.9375 C-53.42187563 2.94614586 -52.04296935 2.95468684 -50.6640625 2.96313477 C-49.95282227 2.96934845 -49.24158203 2.97556213 -48.50878906 2.98196411 C-38.16539151 3.06690392 -27.83262307 3.10744598 -17.5 2.5625 C-16.75016846 2.52318359 -16.00033691 2.48386719 -15.2277832 2.44335938 C-10.12901384 2.1400348 -5.0727399 1.59414965 0 1 C0 0.67 0 0.34 0 0 Z " fill="#0C3856" transform="translate(525,350)"/>
<path d="M0 0 C0.33 0 0.66 0 1 0 C1.17015625 0.75925781 1.3403125 1.51851563 1.515625 2.30078125 C1.75796875 3.29464844 2.0003125 4.28851563 2.25 5.3125 C2.48203125 6.29863281 2.7140625 7.28476562 2.953125 8.30078125 C4.17877936 11.46095724 5.13946883 12.26399037 8 14 C10.21238246 14.39336389 10.21238246 14.39336389 12.5703125 14.2578125 C13.45895996 14.24298828 14.34760742 14.22816406 15.26318359 14.21289062 C16.20758301 14.18388672 17.15198242 14.15488281 18.125 14.125 C20.09889323 14.0921729 22.07286128 14.06359644 24.046875 14.0390625 C25.03880859 14.02649414 26.03074219 14.01392578 27.05273438 14.00097656 C31.50440773 13.99950152 35.93296257 14.22423745 40.375 14.5 C41.14730957 14.54785645 41.91961914 14.59571289 42.71533203 14.64501953 C44.47722578 14.75820589 46.2386787 14.87822964 48 15 C48.495 16.485 48.495 16.485 49 18 C44.6441391 18.0500364 40.2884376 18.08601534 35.93237305 18.10986328 C34.45545532 18.11982183 32.97855678 18.13339361 31.50170898 18.15087891 C9.16889647 18.40836132 9.16889647 18.40836132 2.875 13.625 C-0.38490954 9.06112665 -0.10701203 5.56462552 0 0 Z " fill="#07375F" transform="translate(399,336)"/>
<path d="M0 0 C0.66 0.33 1.32 0.66 2 1 C-0.69727009 4.63599518 -3.32487313 7.14987704 -7.0625 9.6875 C-12.38667093 13.41513239 -16.879606 17.5224752 -21.4921875 22.09375 C-24 24 -24 24 -26.6953125 24.40625 C-29 24 -29 24 -31 22 C-30.625 18.375 -30.625 18.375 -30 15 C-29.01 15 -28.02 15 -27 15 C-27 16.65 -27 18.3 -27 20 C-22.56986765 18.07825309 -19.51545046 14.93967302 -16.0234375 11.6796875 C-14 10 -14 10 -12 10 C-12 9.34 -12 8.68 -12 8 C-10.3203125 6.7109375 -10.3203125 6.7109375 -8.125 5.375 C-7.40570313 4.92898438 -6.68640625 4.48296875 -5.9453125 4.0234375 C-4 3 -4 3 -2 3 C-2 2.34 -2 1.68 -2 1 C-1.34 0.67 -0.68 0.34 0 0 Z " fill="#1F4B6F" transform="translate(314,332)"/>
<path d="M0 0 C0 0.66 0 1.32 0 2 C2.31 2 4.62 2 7 2 C7 2.33 7 2.66 7 3 C5.9213266 2.99777939 4.8426532 2.99555878 3.73129272 2.99327087 C-6.53372122 2.97282292 -16.79873092 2.95792507 -27.06376076 2.94818783 C-32.33857714 2.94301324 -37.61337682 2.93601675 -42.88818359 2.92456055 C-47.99756403 2.9135356 -53.10692861 2.90768257 -58.21632004 2.90512276 C-60.14631779 2.90330324 -62.07631487 2.89975236 -64.00630569 2.89426994 C-77.69831544 2.85699369 -91.32764107 3.26247377 -105 4 C-102.1496544 1.1496544 -100.02904188 1.60076256 -96.03515625 1.39477539 C-95.32496841 1.35746591 -94.61478058 1.32015642 -93.8830719 1.28171635 C-85.40594209 0.86835393 -76.92299114 0.77060562 -68.4375 0.68359375 C-66.70832926 0.66294064 -64.97916262 0.64194258 -63.25 0.62062073 C-58.74879483 0.56608459 -54.24754904 0.5164152 -49.74627686 0.46777344 C-46.07382902 0.4272904 -42.40142549 0.38340655 -38.72901917 0.33933926 C-31.12146991 0.24805627 -23.51389346 0.15901301 -15.90625 0.07592773 C-15.22144058 0.06814804 -14.53663116 0.06036835 -13.83106995 0.05235291 C-9.22037934 0.00311566 -4.61086964 -0.00624121 0 0 Z " fill="#0F4067" transform="translate(520,388)"/>
<path d="M0 0 C3.93265896 -0.04947698 7.86519714 -0.08575578 11.7980957 -0.10986328 C13.79319618 -0.12485495 15.78820946 -0.15026731 17.78320312 -0.17578125 C19.66362305 -0.18544922 19.66362305 -0.18544922 21.58203125 -0.1953125 C22.73936768 -0.20578613 23.8967041 -0.21625977 25.08911133 -0.22705078 C28 0 28 0 31 2 C32.88154883 2.44111565 34.78062638 2.8109267 36.6875 3.125 C37.68136719 3.29257812 38.67523438 3.46015625 39.69921875 3.6328125 C40.45847656 3.75398438 41.21773438 3.87515625 42 4 C42 4.33 42 4.66 42 5 C38.04 5 34.08 5 30 5 C30 4.34 30 3.68 30 3 C25.71313604 3.1190264 21.42646544 3.24331925 17.13989258 3.37231445 C15.6842047 3.41539933 14.22847483 3.45709075 12.77270508 3.49731445 C10.66995639 3.55566411 8.56741394 3.61916516 6.46484375 3.68359375 C5.202771 3.72025146 3.94069824 3.75690918 2.64038086 3.79467773 C-0.97472628 3.99857453 -4.42749891 4.43443786 -8 5 C-8 4.34 -8 3.68 -8 3 C-5.36 2.34 -2.72 1.68 0 1 C0 0.67 0 0.34 0 0 Z " fill="#063159" transform="translate(374,286)"/>
<path d="M0 0 C0.66 0.33 1.32 0.66 2 1 C2.40826939 9.16538779 1.95289908 17.93976376 -3 24.75 C-7.60280857 26.6678369 -12.08358597 26.30996656 -17 26 C-17 25.34 -17 24.68 -17 24 C-19.64 24 -22.28 24 -25 24 C-25 23.67 -25 23.34 -25 23 C-18.4 23 -11.8 23 -5 23 C-2.49994532 15.3861971 -1.0576856 7.93886369 0 0 Z " fill="#1C476A" transform="translate(733,373)"/>
<path d="M0 0 C0.33 0 0.66 0 1 0 C1.2671293 8.51941402 0.50722156 16.48738078 -0.9375 24.875 C-2.420655 33.92740427 -3.66625402 42.82198563 -4 52 C-4.33 52 -4.66 52 -5 52 C-6.6755388 40.055565 -5.54582737 28.83020239 -3.625 17 C-3.5079068 16.27506348 -3.3908136 15.55012695 -3.27017212 14.80322266 C-1.26285815 2.5257163 -1.26285815 2.5257163 0 0 Z " fill="#355C7C" transform="translate(359,328)"/>
<path d="M0 0 C0.33 0.66 0.66 1.32 1 2 C1.66 2 2.32 2 3 2 C4.66657362 5.63669366 6.30432732 9.28569914 7.9375 12.9375 C8.64036133 14.46987305 8.64036133 14.46987305 9.35742188 16.03320312 C12.06447542 22.1289424 13.90010386 27.2936392 14 34 C13.34 34.99 12.68 35.98 12 37 C11.01 36.67 10.02 36.34 9 36 C9.3403125 34.576875 9.3403125 34.576875 9.6875 33.125 C10.83351844 24.52130931 5.84007165 16.0526237 2.33789062 8.44555664 C0 3.30858016 0 3.30858016 0 0 Z " fill="#204A6D" transform="translate(399,408)"/>
<path d="M0 0 C0.33 0 0.66 0 1 0 C1 1.98 1 3.96 1 6 C1.66 6 2.32 6 3 6 C2 9 2 9 0.421875 9.80859375 C-3.16417222 10.09200716 -6.34386425 9.05729768 -9.75 8.0625 C-10.44738281 7.86720703 -11.14476562 7.67191406 -11.86328125 7.47070312 C-13.57798973 6.9891754 -15.28934877 6.49574843 -17 6 C-17 5.34 -17 4.68 -17 4 C-19.64 3.67 -22.28 3.34 -25 3 C-25 2.67 -25 2.34 -25 2 C-16.28296246 1.51967344 -8.45295786 2.92686581 0 5 C0 3.35 0 1.7 0 0 Z " fill="#093559" transform="translate(435,320)"/>
<path d="M0 0 C0.33 0 0.66 0 1 0 C1 4.62 1 9.24 1 14 C1.66 14 2.32 14 3 14 C3.26554687 14.81984375 3.53109375 15.6396875 3.8046875 16.484375 C4.15789062 17.56203125 4.51109375 18.6396875 4.875 19.75 C5.39707031 21.35101563 5.39707031 21.35101563 5.9296875 22.984375 C6.8710483 25.89816171 6.8710483 25.89816171 8.125 28.03125 C9.30311876 30.68201721 9.19368271 32.86532604 9.125 35.75 C9.10695313 36.73484375 9.08890625 37.7196875 9.0703125 38.734375 C9.03550781 39.85585938 9.03550781 39.85585938 9 41 C8.34 41 7.68 41 7 41 C6.98582031 40.39414062 6.97164063 39.78828125 6.95703125 39.1640625 C6.60529482 32.98490905 5.14381947 28.53953352 2.15625 23.12890625 C0.40869617 19.91128179 -0.12319736 17.37082784 -0.09765625 13.76953125 C-0.09282227 12.56586914 -0.09282227 12.56586914 -0.08789062 11.33789062 C-0.07951172 10.50451172 -0.07113281 9.67113281 -0.0625 8.8125 C-0.05798828 7.96751953 -0.05347656 7.12253906 -0.04882812 6.25195312 C-0.03705403 4.16793845 -0.0191189 2.08396023 0 0 Z " fill="#264E70" transform="translate(353,366)"/>
<path d="M0 0 C2.57616924 3.52528422 2.26709962 6.32662062 2.1875 10.625 C0.44966913 7.39759982 -0.67796069 4.10488948 -1.8125 0.625 C-3.03477295 0.7321936 -3.03477295 0.7321936 -4.28173828 0.84155273 C-13.77401501 1.60490832 -23.17133465 1.74485237 -32.6875 1.6875 C-34.16536304 1.68246663 -35.64322777 1.67790702 -37.12109375 1.67382812 C-40.68493195 1.66298718 -44.24870447 1.64582779 -47.8125 1.625 C-47.8125 1.295 -47.8125 0.965 -47.8125 0.625 C-42.2258459 0.33823113 -36.63909484 0.05345933 -31.05224609 -0.22949219 C-29.15312983 -0.32595318 -27.25404082 -0.42295222 -25.35498047 -0.52050781 C-22.61953671 -0.66093395 -19.88399963 -0.79940137 -17.1484375 -0.9375 C-15.88246231 -1.00312134 -15.88246231 -1.00312134 -14.59091187 -1.07006836 C-2.22596829 -1.6886656 -2.22596829 -1.6886656 0 0 Z " fill="#0A4675" transform="translate(727.8125,347.375)"/>
<path d="M0 0 C9.80002636 0.05072477 19.51447985 1.13953104 29.25 2.1875 C29.25 2.5175 29.25 2.8475 29.25 3.1875 C24.44451403 3.23686883 19.63917506 3.27320443 14.83349609 3.29736328 C13.19805328 3.30743254 11.56262851 3.32108881 9.92724609 3.33837891 C7.5790563 3.36258705 5.23110412 3.37397357 2.8828125 3.3828125 C1.78273361 3.39829636 1.78273361 3.39829636 0.66043091 3.41409302 C-1.14462697 3.41449368 -2.9490783 3.30962755 -4.75 3.1875 C-5.41 2.5275 -6.07 1.8675 -6.75 1.1875 C-4.96613525 -0.59636475 -2.41552404 0.01417561 0 0 Z " fill="#083E67" transform="translate(425.75,352.8125)"/>
<path d="M0 0 C-1.32 0.99 -2.64 1.98 -4 3 C-0.58978257 2.21302675 2.68885166 1.12880057 6 0 C6 0.66 6 1.32 6 2 C5.113125 2.433125 4.22625 2.86625 3.3125 3.3125 C0.04701685 4.89498922 0.04701685 4.89498922 -2.625 6.75 C-5.43431995 8.22858945 -6.08844056 7.87346783 -9 7 C-9.99 7.66 -10.98 8.32 -12 9 C-12.99 8.67 -13.98 8.34 -15 8 C-13.68 7.67 -12.36 7.34 -11 7 C-11.33 6.01 -11.66 5.02 -12 4 C-4.71428571 -0.57142857 -4.71428571 -0.57142857 0 0 Z " fill="#0A3962" transform="translate(345,295)"/>
<path d="M0 0 C0.33 0.66 0.66 1.32 1 2 C1.66 2 2.32 2 3 2 C3 2.66 3 3.32 3 4 C3.66 4 4.32 4 5 4 C5 6 5 6 3.57421875 7.54296875 C2.95160156 8.08566406 2.32898438 8.62835938 1.6875 9.1875 C1.07261719 9.73792969 0.45773437 10.28835938 -0.17578125 10.85546875 C-0.77777344 11.23316406 -1.37976563 11.61085938 -2 12 C-2.99 11.67 -3.98 11.34 -5 11 C-4.47731534 8.23723823 -3.89130413 5.6739124 -3 3 C-2.34 3 -1.68 3 -1 3 C-0.67 2.01 -0.34 1.02 0 0 Z " fill="#0E3457" transform="translate(291,341)"/>
<path d="M0 0 C-3.33982257 2.22654838 -5.37468782 2.52201598 -9.3125 3.0625 C-10.42238281 3.21847656 -11.53226562 3.37445313 -12.67578125 3.53515625 C-14.32126953 3.76525391 -14.32126953 3.76525391 -16 4 C-17.06605469 4.22558594 -18.13210938 4.45117188 -19.23046875 4.68359375 C-22 5 -22 5 -25 3 C-16.3294673 -0.12611043 -9.16304884 -1.35056275 0 0 Z " fill="#19446C" transform="translate(355,321)"/>
<path d="M0 0 C1.25425781 0.00902344 2.50851562 0.01804687 3.80078125 0.02734375 C4.75339844 0.03894531 5.70601563 0.05054688 6.6875 0.0625 C6.6875 0.3925 6.6875 0.7225 6.6875 1.0625 C1.7375 1.3925 -3.2125 1.7225 -8.3125 2.0625 C-8.3125 2.7225 -8.3125 3.3825 -8.3125 4.0625 C-5.0125 3.4025 -1.7125 2.7425 1.6875 2.0625 C0.6975 3.3825 -0.2925 4.7025 -1.3125 6.0625 C-4.44921875 6.453125 -4.44921875 6.453125 -8 6.3125 C-9.76923828 6.25835937 -9.76923828 6.25835937 -11.57421875 6.203125 C-12.92966797 6.13351562 -12.92966797 6.13351562 -14.3125 6.0625 C-13.3225 5.4025 -12.3325 4.7425 -11.3125 4.0625 C-11.6425 3.0725 -11.9725 2.0825 -12.3125 1.0625 C-8.15623632 0.05323521 -4.26884906 -0.03989579 0 0 Z " fill="#104066" transform="translate(374.3125,286.9375)"/>
<path d="M0 0 C0.66 0.33 1.32 0.66 2 1 C1.44570313 1.45890625 0.89140625 1.9178125 0.3203125 2.390625 C-0.40414063 3.00421875 -1.12859375 3.6178125 -1.875 4.25 C-2.59429687 4.85328125 -3.31359375 5.4565625 -4.0546875 6.078125 C-5.97052118 7.97087634 -6.96449045 9.53657727 -8 12 C-10.375 12.125 -10.375 12.125 -13 12 C-13.66 11.34 -14.32 10.68 -15 10 C-14.625 6.375 -14.625 6.375 -14 3 C-13.01 3 -12.02 3 -11 3 C-11 4.65 -11 6.3 -11 8 C-8.00779732 6.63629701 -5.70973471 5.05091917 -3.25 2.875 C-2.63640625 2.33617187 -2.0228125 1.79734375 -1.390625 1.2421875 C-0.70226562 0.62730469 -0.70226562 0.62730469 0 0 Z " fill="#40647D" transform="translate(298,344)"/>
<path d="M0 0 C4.66063737 4.66063737 4.23100675 11.35020854 4.265625 17.546875 C4 20 4 20 2 23 C1.96261719 22.29875 1.92523437 21.5975 1.88671875 20.875 C1.45496404 14.64418696 0.36613929 9.76103479 -2 4 C-2 3.01 -2 2.02 -2 1 C-1.34 0.67 -0.68 0.34 0 0 Z " fill="#295476" transform="translate(731,345)"/>
<path d="M0 0 C2.56616632 3.84924948 2.55097676 6.4349304 3 11 C3.33 11 3.66 11 4 11 C4 13.97 4 16.94 4 20 C3.67 20 3.34 20 3 20 C2.34 23.96 1.68 27.92 1 32 C0.67 32 0.34 32 0 32 C0 21.44 0 10.88 0 0 Z " fill="#0D3659" transform="translate(731,354)"/>
<path d="M0 0 C0.33 0.99 0.66 1.98 1 3 C0.67 3.66 0.34 4.32 0 5 C-0.66 5 -1.32 5 -2 5 C-2 10.61 -2 16.22 -2 22 C-4.47510308 19.52489692 -4.95765771 17.83812836 -5.1328125 14.37109375 C-5.13023437 13.40300781 -5.12765625 12.43492187 -5.125 11.4375 C-5.12757813 10.46683594 -5.13015625 9.49617188 -5.1328125 8.49609375 C-5 6 -5 6 -4 4 C-3.34 4 -2.68 4 -2 4 C-1.34 2.68 -0.68 1.36 0 0 Z " fill="#094777" transform="translate(402,324)"/>
<path d="M0 0 C-6.36607809 1.66517133 -10.79892075 2.42650927 -17 0 C-17 0.66 -17 1.32 -17 2 C-18.32 1.67 -19.64 1.34 -21 1 C-15.19813009 -2.86791327 -5.91749465 -3.94499643 0 0 Z " fill="#1D6499" transform="translate(429,298)"/>
<path d="M0 0 C3 1 3 1 4.25 3 C5.28909999 7.15639996 4.67520668 10.8118937 4 15 C2.68 14.67 1.36 14.34 0 14 C0.185625 12.989375 0.37125 11.97875 0.5625 10.9375 C0.99768247 7.02085773 0.70853021 3.85755337 0 0 Z " fill="#284E6F" transform="translate(408,430)"/>
<path d="M0 0 C0.66 0.33 1.32 0.66 2 1 C2.19548629 7.15781799 2.12086994 13.1348782 0 19 C-0.66 19.33 -1.32 19.66 -2 20 C-2.31620422 13.20160929 -1.12676382 6.69016016 0 0 Z " fill="#1E4668" transform="translate(733,373)"/>
<path d="M0 0 C1.32 0 2.64 0 4 0 C4 0.66 4 1.32 4 2 C4.99 2.33 5.98 2.66 7 3 C-2.35912329 3.99263429 -11.60394198 4.10731538 -21 4 C-21 3.67 -21 3.34 -21 3 C-14.07 2.34 -7.14 1.68 0 1 C0 0.67 0 0.34 0 0 Z " fill="#012D53" transform="translate(525,350)"/>
<path d="M0 0 C6.92676119 0.53282778 13.67142337 2.06354045 20 5 C20.33 5.99 20.66 6.98 21 8 C20.01 8 19.02 8 18 8 C18 7.34 18 6.68 18 6 C16.78441406 5.73445313 15.56882812 5.46890625 14.31640625 5.1953125 C12.73167183 4.83898168 11.14704169 4.48218686 9.5625 4.125 C8.76005859 3.95097656 7.95761719 3.77695312 7.13085938 3.59765625 C5.0717622 3.12849487 3.03341657 2.57027241 1 2 C0.67 1.34 0.34 0.68 0 0 Z " fill="#062E4E" transform="translate(416,291)"/>
<path d="M0 0 C1.05832031 -0.02578125 2.11664063 -0.0515625 3.20703125 -0.078125 C6.48137524 0.28235324 7.79749318 1.05096225 10.1875 3.25 C7.72887599 3.30383848 5.2714245 3.34359038 2.8125 3.375 C1.76449219 3.40013672 1.76449219 3.40013672 0.6953125 3.42578125 C-1.14147486 3.44344267 -2.97851963 3.35303261 -4.8125 3.25 C-5.4725 2.59 -6.1325 1.93 -6.8125 1.25 C-5.01828481 -0.54421519 -2.42217074 0.03514637 0 0 Z " fill="#114E7B" transform="translate(425.8125,352.75)"/>
<path d="M0 0 C2 2 2 2 2.13525391 4.15478516 C2.08288574 5.02409668 2.03051758 5.8934082 1.9765625 6.7890625 C1.925 7.73007812 1.8734375 8.67109375 1.8203125 9.640625 C1.75585938 10.62546875 1.69140625 11.6103125 1.625 12.625 C1.56828125 13.61757813 1.5115625 14.61015625 1.453125 15.6328125 C1.31140759 18.08924767 1.15997723 20.54469735 1 23 C0.67 23 0.34 23 0 23 C-0.1954384 20.10450497 -0.38161395 17.20891002 -0.5625 14.3125 C-0.61857422 13.49587891 -0.67464844 12.67925781 -0.73242188 11.83789062 C-0.98341571 7.70485877 -1.11127743 4.04175718 0 0 Z " fill="#436A88" transform="translate(354,357)"/>
<path d="M0 0 C1.32 0.33 2.64 0.66 4 1 C3.67 4.96 3.34 8.92 3 13 C2.34 13 1.68 13 1 13 C0.67 8.71 0.34 4.42 0 0 Z " fill="#094875" transform="translate(432,299)"/>
<path d="M0 0 C6.27 0 12.54 0 19 0 C15.09567131 1.95216435 12.27786748 2.50639991 8 3 C8 2.34 8 1.68 8 1 C5.36 1 2.72 1 0 1 C0 0.67 0 0.34 0 0 Z " fill="#2A5779" transform="translate(708,396)"/>
<path d="M0 0 C6.7281627 -0.22262303 12.53991163 0.04978464 19 2 C15.44025933 4.37316044 14.09741387 3.91542827 10.04882812 3.109375 C9.31083984 2.94953125 8.57285156 2.7896875 7.8125 2.625 C7.06291016 2.47289062 6.31332031 2.32078125 5.54101562 2.1640625 C3.69171467 1.78713492 1.84552225 1.39501397 0 1 C0 0.67 0 0.34 0 0 Z " fill="#053155" transform="translate(410,322)"/>
<path d="M0 0 C1.5625 1.75 1.5625 1.75 3 4 C2.6875 6.25 2.6875 6.25 2 8 C2.66 8.33 3.32 8.66 4 9 C3.34 9 2.68 9 2 9 C1.67 9.66 1.34 10.32 1 11 C-1 9 -1 9 -1.23046875 7.08984375 C-1.11111111 1.11111111 -1.11111111 1.11111111 0 0 Z " fill="#1F4362" transform="translate(349,435)"/>
<path d="M0 0 C0.66 0.33 1.32 0.66 2 1 C0.78258021 2.46815389 -0.44948761 3.92416847 -1.6875 5.375 C-2.37199219 6.18710937 -3.05648438 6.99921875 -3.76171875 7.8359375 C-6.09861313 10.09534323 -7.9302743 11.02155853 -11 12 C-8.49963116 8.78524006 -5.92598583 5.83159919 -3 3 C-2.13375 2.13375 -2.13375 2.13375 -1.25 1.25 C-0.8375 0.8375 -0.425 0.425 0 0 Z " fill="#275375" transform="translate(302,341)"/>
<path d="M0 0 C5.28 0.33 10.56 0.66 16 1 C16 1.33 16 1.66 16 2 C13.89807303 2.24887295 11.79326036 2.4734719 9.6875 2.6875 C8.51574219 2.81511719 7.34398437 2.94273437 6.13671875 3.07421875 C3 3 3 3 0 0 Z " fill="#225178" transform="translate(568,393)"/>
<path d="M0 0 C0 0.33 0 0.66 0 1 C-1.91345327 1.53251766 -3.8309295 2.05059483 -5.75 2.5625 C-6.81734375 2.85253906 -7.8846875 3.14257812 -8.984375 3.44140625 C-11.84335927 3.97098494 -13.31597383 3.98370862 -16 3 C-15.67 2.34 -15.34 1.68 -15 1 C-10.19396481 -0.55033393 -4.99180941 -0.0872355 0 0 Z " fill="#0B4B7D" transform="translate(422,319)"/>
<path d="M0 0 C0.99 0.33 1.98 0.66 3 1 C3 1.66 3 2.32 3 3 C0.12228205 4.91847864 -2.88626628 6.50079488 -6 8 C-6 7.01 -6 6.02 -6 5 C-3.1875 2.25 -3.1875 2.25 0 0 Z " fill="#1A4667" transform="translate(319,307)"/>
<path d="M0 0 C0.99 0.33 1.98 0.66 3 1 C3.73046875 3.06640625 3.73046875 3.06640625 4.1875 5.5625 C4.34605469 6.38878906 4.50460937 7.21507812 4.66796875 8.06640625 C4.77753906 8.70449219 4.88710938 9.34257812 5 10 C4.34 10 3.68 10 3 10 C3 9.34 3 8.68 3 8 C2.34 8 1.68 8 1 8 C0.67 8.66 0.34 9.32 0 10 C0 6.7 0 3.4 0 0 Z " fill="#0D3C63" transform="translate(397,400)"/>
<path d="M0 0 C0.99 0.33 1.98 0.66 3 1 C5.63804589 0.60602665 5.63804589 0.60602665 8 0 C7.67 0.99 7.34 1.98 7 3 C4.26969007 4.2676439 3.12647354 4.04311598 0.25 3.0625 C-0.4925 2.711875 -1.235 2.36125 -2 2 C-1.34 1.34 -0.68 0.68 0 0 Z " fill="#143D5F" transform="translate(430,326)"/>
<path d="M0 0 C2.97 0.495 2.97 0.495 6 1 C3.38485683 3.12038635 0.80362384 5.13091744 -2 7 C-1.34 4.69 -0.68 2.38 0 0 Z " fill="#053760" transform="translate(404,322)"/>
<path d="M0 0 C0.33 1.32 0.66 2.64 1 4 C-1.64 4.66 -4.28 5.32 -7 6 C-7 4 -7 4 -5.1875 1.875 C-3 0 -3 0 0 0 Z " fill="#0C355C" transform="translate(311,319)"/>
<path d="M0 0 C2 3 2 3 1.625 6.1875 C1.41875 7.115625 1.2125 8.04375 1 9 C0.34 9 -0.32 9 -1 9 C-1.33 9.66 -1.66 10.32 -2 11 C-1 3.57142857 -1 3.57142857 0 0 Z " fill="#2D5477" transform="translate(359,404)"/>
<path d="M0 0 C0.99 0.33 1.98 0.66 3 1 C3.95024979 4.69541586 3.95024979 7.30458414 3 11 C0.87953208 7.46588679 0.46800711 4.05606165 0 0 Z " fill="#3A5E80" transform="translate(408,430)"/>
<path d="M0 0 C0.99 0 1.98 0 3 0 C2.34 1.65 1.68 3.3 1 5 C0.34 5 -0.32 5 -1 5 C-1 5.99 -1 6.98 -1 8 C-1.99 8.33 -2.98 8.66 -4 9 C-2.80100302 5.9168649 -1.52299523 2.93720508 0 0 Z " fill="#1F466A" transform="translate(289,339)"/>
<path d="M0 0 C1.32 0 2.64 0 4 0 C3.34 1.65 2.68 3.3 2 5 C1.01 5 0.02 5 -1 5 C-1.33 4.34 -1.66 3.68 -2 3 C-1.34 2.01 -0.68 1.02 0 0 Z " fill="#0B3657" transform="translate(292,335)"/>
<path d="M0 0 C1.67542976 0.28604898 3.34385343 0.61781233 5 1 C3.625 3 3.625 3 2 5 C1.34 5 0.68 5 0 5 C-0.5625 3.0625 -0.5625 3.0625 -1 1 C-0.67 0.67 -0.34 0.34 0 0 Z " fill="#0F3958" transform="translate(322,305)"/>
<path d="M0 0 C0.33 0.66 0.66 1.32 1 2 C0.67 2.66 0.34 3.32 0 4 C-3.3 4 -6.6 4 -10 4 C-10 3.67 -10 3.34 -10 3 C-7.69 3 -5.38 3 -3 3 C-3 2.34 -3 1.68 -3 1 C-2.01 0.67 -1.02 0.34 0 0 Z " fill="#093253" transform="translate(728,392)"/>
</svg>
